<svg width="222" height="222" viewBox="0 0 222 222" fill="none" xmlns="http://www.w3.org/2000/svg">
<path d="M63.5248 207.8L55.5 100.909H166.5L158.48 207.8H63.5248Z" fill="#F25022"/>
<path d="M30.2727 216.954C30.2727 206.317 43.6956 196.982 62.19 194.762L63.8603 194.56L64.3172 192.942C65.8755 187.352 68.8935 182.277 73.0611 178.239C77.2288 174.201 82.3961 171.344 88.0325 169.963C93.6689 168.581 99.5714 168.725 105.134 170.379C110.697 172.032 115.719 175.136 119.685 179.372L120.751 180.503L122.239 180.062C127.539 178.476 133.236 178.89 138.252 181.225C143.267 183.559 147.251 187.653 149.448 192.73L150.103 194.244L151.75 194.25C174.169 194.366 191.727 204.338 191.727 216.954H30.2727Z" fill="#FDECB8"/>
<path d="M115.339 56.7121C112.566 54.4579 109.378 52.769 105.955 51.7411V37.2102L111 40.3611L116.045 37.2127V56.4082L115.339 56.7121Z" fill="white"/>
<path d="M148.841 128.659H73.1591V143.796H148.841V128.659Z" fill="#FFB900"/>
<path d="M179.114 75.6819H42.8864V100.909H179.114V75.6819Z" fill="#FFB900"/>
<path d="M147.58 63.0682C146.038 63.0659 144.497 63.1416 142.963 63.2953C140.811 60.5741 138.058 58.3883 134.92 56.9089C131.782 55.4296 128.344 54.697 124.875 54.7685C121.596 54.7488 118.349 55.4103 115.339 56.711C110.169 52.591 103.736 50.3811 97.125 50.4546C92.4112 50.3175 87.7429 51.4109 83.5802 53.6272C79.4175 55.8435 75.9041 59.106 73.3862 63.0935C60.6212 63.371 50.4546 68.8957 50.4546 75.6819H58.2246C59.5228 75.6805 60.8086 75.935 62.0084 76.4308C63.2081 76.9267 64.2984 77.6542 65.2169 78.5717C66.1353 79.4892 66.8639 80.5788 67.3609 81.7781C67.858 82.9774 68.1138 84.2629 68.1137 85.5611V85.8588C68.1064 86.5067 68.2275 87.1496 68.47 87.7504C68.7126 88.3512 69.0717 88.898 69.5268 89.3592C69.9818 89.8204 70.5237 90.187 71.1212 90.4376C71.7187 90.6882 72.3599 90.818 73.0078 90.8195H73.1591C74.4974 90.8191 75.7807 90.2872 76.7268 89.3408C77.673 88.3944 78.2045 87.111 78.2046 85.7728V84.5074C78.2051 83.5038 78.6043 82.5415 79.3144 81.8322C80.0244 81.1229 80.9871 80.7248 81.9907 80.7253C82.9943 80.7258 83.9566 81.125 84.6659 81.8351C85.3751 82.5451 85.7733 83.5078 85.7728 84.5114V103.432C85.7728 105.439 86.5701 107.364 87.9894 108.783C89.4088 110.203 91.3337 111 93.341 111C95.3482 111 97.2732 110.203 98.6925 108.783C100.112 107.364 100.909 105.439 100.909 103.432V87.0341C100.909 86.0305 101.308 85.068 102.017 84.3584C102.727 83.6487 103.69 83.25 104.693 83.25C105.697 83.25 106.659 83.6487 107.369 84.3584C108.079 85.068 108.477 86.0305 108.477 87.0341V88.2955C108.477 89.6336 109.009 90.917 109.955 91.8632C110.901 92.8094 112.185 93.341 113.523 93.341C114.861 93.341 116.144 92.8094 117.09 91.8632C118.037 90.917 118.568 89.6336 118.568 88.2955V83.25C118.568 81.2428 119.366 79.3178 120.785 77.8985C122.204 76.4792 124.129 75.6819 126.136 75.6819H171.546C171.546 68.7191 160.824 63.0682 147.58 63.0682Z" fill="#FDECB8"/>
<path d="M90.8181 27.75V5.04541H131.182V27.75L111 40.3636L90.8181 27.75Z" fill="#00A4EF"/>
<path d="M100.909 22.7044V15.1362H121.091V22.7044L111 28.4638L100.909 22.7044Z" fill="white"/>
<path d="M37.8409 138.75H55.8113L58.662 176.704C58.7098 177.338 58.9952 177.931 59.4611 178.363C59.927 178.796 60.5391 179.036 61.1749 179.037C61.2377 179.037 61.301 179.035 61.3658 179.03C61.6963 179.005 62.0186 178.915 62.3144 178.766C62.6101 178.617 62.8736 178.411 63.0897 178.159C63.3058 177.908 63.4703 177.617 63.5737 177.302C63.6772 176.987 63.7177 176.655 63.6928 176.325L60.8709 138.75H70.6363V143.795C70.6363 144.464 70.9021 145.106 71.3752 145.579C71.8483 146.052 72.49 146.318 73.1591 146.318H148.841C149.51 146.318 150.152 146.052 150.625 145.579C151.098 145.106 151.364 144.464 151.364 143.795V138.75H161.131L157.702 184.45C157.678 184.78 157.718 185.112 157.822 185.427C157.925 185.742 158.089 186.033 158.306 186.284C158.522 186.535 158.785 186.742 159.081 186.891C159.377 187.04 159.699 187.13 160.029 187.155C160.093 187.16 160.157 187.162 160.22 187.162C160.856 187.161 161.468 186.921 161.934 186.488C162.4 186.056 162.685 185.463 162.733 184.829L166.19 138.75H184.159C186.166 138.748 188.089 137.95 189.508 136.531C190.927 135.112 191.725 133.188 191.727 131.182V93.3409C191.725 91.3344 190.927 89.4106 189.508 87.9918C188.089 86.573 186.166 85.7749 184.159 85.7727H181.636V75.6818C181.636 75.0127 181.371 74.3711 180.897 73.898C180.424 73.4249 179.783 73.1591 179.114 73.1591H173.686C171.637 65.9166 160.921 60.5454 147.58 60.5454C146.402 60.5454 145.233 60.5848 144.092 60.6663C141.682 57.9641 138.718 55.8133 135.402 54.3601C132.086 52.907 128.495 52.1858 124.875 52.2457C122.75 52.2467 120.633 52.4992 118.568 52.9979V38.6073L132.519 29.8885C132.882 29.6618 133.181 29.3466 133.388 28.9725C133.596 28.5984 133.704 28.1777 133.705 27.75V5.04543C133.705 4.37636 133.439 3.7347 132.966 3.26159C132.493 2.78849 131.851 2.52271 131.182 2.52271H90.8182C90.1491 2.52271 89.5074 2.78849 89.0343 3.26159C88.5612 3.7347 88.2954 4.37636 88.2954 5.04543V27.75C88.2956 28.1777 88.4044 28.5984 88.6119 28.9725C88.8193 29.3466 89.1184 29.6618 89.4811 29.8885L103.432 38.6073V48.5554C101.354 48.147 99.2423 47.9381 97.125 47.9318C92.2072 47.806 87.3346 48.8986 82.9414 51.1123C78.5481 53.3259 74.7707 56.592 71.9456 60.6194C59.6431 61.2329 50.1954 66.3563 48.3009 73.1591H42.8863C42.2173 73.1591 41.5756 73.4249 41.1025 73.898C40.6294 74.3711 40.3636 75.0127 40.3636 75.6818V85.7727H37.8409C35.8344 85.7749 33.9106 86.573 32.4918 87.9918C31.073 89.4106 30.2749 91.3344 30.2727 93.3409V131.182C30.2749 133.188 31.073 135.112 32.4918 136.531C33.9106 137.95 35.8344 138.748 37.8409 138.75ZM146.318 141.273H75.6818V131.182H146.318V141.273ZM184.159 90.8182C184.828 90.8188 185.469 91.0847 185.942 91.5577C186.415 92.0307 186.681 92.672 186.682 93.3409V131.182C186.681 131.851 186.415 132.492 185.942 132.965C185.469 133.438 184.828 133.704 184.159 133.705H166.569L168.839 103.432H179.114C179.783 103.432 180.424 103.166 180.897 102.693C181.371 102.22 181.636 101.578 181.636 100.909V90.8182H184.159ZM176.591 98.3863H148.841C148.172 98.3863 147.53 98.6521 147.057 99.1252C146.584 99.5983 146.318 100.24 146.318 100.909C146.318 101.578 146.584 102.22 147.057 102.693C147.53 103.166 148.172 103.432 148.841 103.432H163.781L161.511 133.705H151.364V128.659C151.364 127.99 151.098 127.348 150.625 126.875C150.152 126.402 149.51 126.136 148.841 126.136H73.1591C72.49 126.136 71.8483 126.402 71.3752 126.875C70.9021 127.348 70.6363 127.99 70.6363 128.659V133.705H60.4922L58.2197 103.432H83.25C83.25 106.108 84.3131 108.675 86.2055 110.567C88.0979 112.46 90.6646 113.523 93.3409 113.523C96.0172 113.523 98.5838 112.46 100.476 110.567C102.369 108.675 103.432 106.108 103.432 103.432H136.227C136.896 103.432 137.538 103.166 138.011 102.693C138.484 102.22 138.75 101.578 138.75 100.909C138.75 100.24 138.484 99.5983 138.011 99.1252C137.538 98.6521 136.896 98.3863 136.227 98.3863H103.432V87.0341C103.432 86.6995 103.565 86.3787 103.801 86.1422C104.038 85.9056 104.359 85.7727 104.693 85.7727C105.028 85.7727 105.349 85.9056 105.585 86.1422C105.822 86.3787 105.955 86.6995 105.955 87.0341V88.2954C105.955 90.3026 106.752 92.2276 108.171 93.6469C109.591 95.0662 111.515 95.8636 113.523 95.8636C115.53 95.8636 117.455 95.0662 118.874 93.6469C120.294 92.2276 121.091 90.3026 121.091 88.2954V83.25C121.092 81.9123 121.624 80.6299 122.57 79.684C123.516 78.7381 124.799 78.2061 126.136 78.2045H176.591V98.3863ZM93.3409 7.56816H128.659V26.3506L111 37.3868L93.3409 26.3499V7.56816ZM108.477 49.9346V41.763C109.194 42.3708 110.069 42.7606 111 42.8863C111.931 42.7606 112.806 42.3708 113.523 41.763V52.3539C111.909 51.4123 110.222 50.6032 108.477 49.9346ZM73.4411 65.6161C73.8749 65.606 74.2988 65.4845 74.672 65.2631C75.0452 65.0418 75.3552 64.7281 75.5721 64.3522C77.8837 60.7634 81.0816 57.8311 84.8569 55.8386C88.6323 53.846 92.8577 52.8605 97.125 52.9772C103.092 52.9225 108.901 54.8915 113.605 58.5631C113.975 58.8864 114.428 59.1006 114.913 59.1818C115.399 59.263 115.897 59.208 116.352 59.023C119.042 57.8586 121.944 57.2687 124.875 57.2911C127.951 57.2142 131.003 57.8524 133.79 59.1554C136.578 60.4584 139.025 62.3906 140.939 64.8C141.203 65.1466 141.55 65.4206 141.948 65.5964C142.346 65.7723 142.783 65.8441 143.216 65.8053C144.666 65.6604 146.122 65.5889 147.58 65.5909C158.007 65.5909 165.825 69.2123 168.241 73.1591H126.136C123.461 73.1619 120.896 74.2259 119.004 76.1177C117.112 78.0095 116.048 80.5746 116.045 83.25V88.2954C116.045 88.9645 115.78 89.6062 115.307 90.0793C114.833 90.5524 114.192 90.8182 113.523 90.8182C112.854 90.8182 112.212 90.5524 111.739 90.0793C111.266 89.6062 111 88.9645 111 88.2954V87.0341C111 85.3614 110.336 83.7572 109.153 82.5745C107.97 81.3917 106.366 80.7272 104.693 80.7272C103.02 80.7272 101.416 81.3917 100.234 82.5745C99.0508 83.7572 98.3863 85.3614 98.3863 87.0341V103.432C98.3863 104.77 97.8548 106.053 96.9086 106.999C95.9624 107.946 94.679 108.477 93.3409 108.477C92.0028 108.477 90.7194 107.946 89.7732 106.999C88.827 106.053 88.2954 104.77 88.2954 103.432V84.5113C88.2961 82.8387 87.6323 81.2342 86.45 80.051C85.2677 78.8678 83.6638 78.2027 81.9911 78.202C80.3185 78.2013 78.714 78.8652 77.5308 80.0474C76.3476 81.2297 75.6825 82.8336 75.6818 84.5063V85.7727C75.6769 86.1155 75.6032 86.4538 75.4651 86.7675C75.3271 87.0813 75.1275 87.3642 74.8781 87.5995C74.6288 87.8347 74.3348 88.0175 74.0135 88.137C73.6922 88.2566 73.3502 88.3105 73.0077 88.2954C72.6903 88.2939 72.3764 88.2289 72.0845 88.1045C71.7925 87.98 71.5284 87.7985 71.3075 87.5705C71.0866 87.3426 70.9135 87.0729 70.7982 86.7772C70.683 86.4814 70.6279 86.1657 70.6363 85.8484V85.5608C70.6355 84.7253 70.551 83.892 70.3841 83.0734L70.376 83.0482C69.8905 80.672 68.7146 78.492 66.9955 76.7812C64.6361 74.5066 61.5014 73.2121 58.2245 73.1591H53.7497C56.0618 69.3404 63.3994 65.8348 73.4411 65.6161ZM45.4091 78.2045H58.2245C60.1775 78.2067 62.05 78.9834 63.431 80.3644C64.812 81.7454 65.5887 83.6179 65.5909 85.5709V85.8592C65.5916 86.8485 65.7884 87.8278 66.1698 88.7406C66.5513 89.6534 67.1098 90.4816 67.8132 91.1772C68.5165 91.8729 69.3508 92.4223 70.2677 92.7936C71.1846 93.165 72.1661 93.351 73.1553 93.3409H73.1603C75.1671 93.3394 77.0912 92.5416 78.5102 91.1226C79.9292 89.7036 80.727 87.7795 80.7285 85.7727V84.5113C80.7285 84.1768 80.8614 83.856 81.098 83.6194C81.3345 83.3829 81.6553 83.25 81.9899 83.25C82.3244 83.25 82.6452 83.3829 82.8818 83.6194C83.1183 83.856 83.2512 84.1768 83.2512 84.5113V98.3863H45.4091V78.2045ZM35.3182 93.3409C35.3188 92.672 35.5847 92.0307 36.0577 91.5577C36.5307 91.0847 37.172 90.8188 37.8409 90.8182H40.3636V100.909C40.3636 101.578 40.6294 102.22 41.1025 102.693C41.5756 103.166 42.2173 103.432 42.8863 103.432H53.1599L55.4326 133.705H37.8409C37.172 133.704 36.5307 133.438 36.0577 132.965C35.5847 132.492 35.3188 131.851 35.3182 131.182V93.3409Z" fill="#2F2E3A"/>
<path d="M112.25 30.6546L122.341 24.8947C122.728 24.6745 123.049 24.3558 123.273 23.9711C123.496 23.5864 123.614 23.1494 123.614 22.7044V15.1363C123.614 14.4672 123.348 13.8255 122.875 13.3524C122.402 12.8793 121.76 12.6135 121.091 12.6135H100.909C100.24 12.6135 99.5983 12.8793 99.1252 13.3524C98.6521 13.8255 98.3864 14.4672 98.3864 15.1363V22.7044C98.3861 23.1494 98.5038 23.5864 98.7273 23.9711C98.9508 24.3558 99.2722 24.6745 99.6588 24.8947L109.75 30.6546C110.13 30.8724 110.561 30.987 111 30.987C111.439 30.987 111.87 30.8724 112.25 30.6546ZM103.432 21.2385V17.659H118.568V21.2385L111 25.5597L103.432 21.2385Z" fill="#2F2E3A"/>
<path d="M204.341 214.432H194.041C191.965 201.591 174.175 191.843 151.764 191.727C149.321 186.085 144.893 181.535 139.319 178.939C133.746 176.343 127.414 175.882 121.523 177.643C117.241 173.07 111.817 169.722 105.81 167.946C99.8031 166.169 93.4308 166.027 87.3507 167.534C87.0291 167.614 86.7264 167.756 86.4598 167.953C86.1932 168.15 85.968 168.397 85.797 168.681C85.6259 168.965 85.5125 169.279 85.4631 169.607C85.4137 169.935 85.4294 170.269 85.5091 170.59C85.5888 170.912 85.7311 171.215 85.9279 171.481C86.1246 171.748 86.3719 171.973 86.6557 172.144C86.9395 172.315 87.2542 172.428 87.5818 172.478C87.9094 172.527 88.2435 172.512 88.5651 172.432C93.4626 171.22 98.5852 171.25 103.468 172.52C108.351 173.79 112.839 176.26 116.525 179.705C111.175 182.637 107.07 187.409 104.971 193.136C104.848 193.449 104.789 193.783 104.797 194.119C104.805 194.455 104.88 194.786 105.018 195.093C105.155 195.399 105.353 195.675 105.599 195.904C105.845 196.133 106.134 196.311 106.449 196.427C106.764 196.542 107.1 196.594 107.435 196.579C107.771 196.563 108.1 196.481 108.404 196.336C108.707 196.192 108.978 195.988 109.202 195.737C109.426 195.486 109.597 195.193 109.706 194.876C111.133 190.974 113.73 187.609 117.142 185.239C120.554 182.87 124.614 181.611 128.768 181.636C132.922 181.662 136.967 182.969 140.35 185.379C143.733 187.79 146.29 191.187 147.67 195.105C147.853 195.621 148.198 196.065 148.653 196.369C149.109 196.673 149.65 196.821 150.197 196.792C150.576 196.77 150.954 196.78 151.364 196.773C170.277 196.773 186.484 204.631 188.896 214.432H33.1035C35.2062 205.859 47.8344 198.614 64.1078 197.066C66.2143 196.871 68.4118 196.773 70.6364 196.773C71.3054 196.773 71.9471 196.507 72.4202 196.034C72.8933 195.561 73.1591 194.919 73.1591 194.25C73.1591 193.581 72.8933 192.939 72.4202 192.466C71.9471 191.993 71.3054 191.727 70.6364 191.727C69.5117 191.727 68.3931 191.752 67.2884 191.799C69.3211 186.017 73.0584 180.987 78.0075 177.372C78.2852 177.18 78.5218 176.935 78.7031 176.651C78.8844 176.366 79.0069 176.049 79.0632 175.716C79.1195 175.383 79.1086 175.043 79.031 174.715C78.9535 174.386 78.8109 174.077 78.6117 173.805C78.4125 173.533 78.1607 173.303 77.8712 173.13C77.5818 172.957 77.2606 172.843 76.9265 172.796C76.5925 172.75 76.2525 172.77 75.9265 172.857C75.6006 172.944 75.2954 173.095 75.0289 173.302C68.651 177.971 64.025 184.646 61.8923 192.257C43.4118 194.477 29.7974 203.454 27.973 214.432H17.6591C16.99 214.432 16.3483 214.698 15.8752 215.171C15.4021 215.644 15.1364 216.285 15.1364 216.954C15.1364 217.624 15.4021 218.265 15.8752 218.738C16.3483 219.211 16.99 219.477 17.6591 219.477H204.341C205.01 219.477 205.652 219.211 206.125 218.738C206.598 218.265 206.864 217.624 206.864 216.954C206.864 216.285 206.598 215.644 206.125 215.171C205.652 214.698 205.01 214.432 204.341 214.432Z" fill="#2F2E3A"/>
</svg>
