<svg width="604" height="176" viewBox="0 0 604 176" fill="none" xmlns="http://www.w3.org/2000/svg">
<path d="M36.864 135.28C28.16 135.28 20.736 133.232 14.592 129.136C8.448 124.955 4.26667 119.323 2.048 112.24L22.784 106.352C23.7227 109.253 25.472 111.557 28.032 113.264C30.592 114.971 33.6213 115.824 37.12 115.824C40.6187 115.824 43.392 115.056 45.44 113.52C47.5733 111.899 48.64 109.893 48.64 107.504C48.64 106.821 48.512 106.181 48.256 105.584C48.0853 104.987 47.7867 104.432 47.36 103.92C46.9333 103.408 46.464 102.981 45.952 102.64C45.5253 102.213 44.8853 101.829 44.032 101.488C43.1787 101.061 42.4533 100.763 41.856 100.592C41.2587 100.336 40.3627 100.037 39.168 99.696C38.0587 99.3547 37.12 99.0987 36.352 98.928C35.6693 98.7573 34.6453 98.544 33.28 98.288C32 97.9467 31.0187 97.6907 30.336 97.52C26.5813 96.496 23.3387 95.4293 20.608 94.32C17.8773 93.2107 15.0187 91.632 12.032 89.584C9.04533 87.536 6.74133 84.9333 5.12 81.776C3.584 78.5333 2.816 74.7787 2.816 70.512C2.816 62.6613 5.97333 56.0907 12.288 50.8C18.688 45.5093 26.5387 42.864 35.84 42.864C44.2027 42.864 51.1147 44.8267 56.576 48.752C62.1227 52.592 65.9627 58.096 68.096 65.264L48.512 70.896C46.464 64.9227 42.368 61.936 36.224 61.936C32.8107 61.936 30.08 62.7893 28.032 64.496C25.984 66.2027 24.96 68.2507 24.96 70.64C24.96 71.3227 25.0453 71.9627 25.216 72.56C25.3867 73.072 25.6853 73.584 26.112 74.096C26.5387 74.608 26.9653 75.0773 27.392 75.504C27.8187 75.8453 28.416 76.2293 29.184 76.656C30.0373 76.9973 30.72 77.296 31.232 77.552C31.8293 77.808 32.6827 78.1067 33.792 78.448C34.9867 78.7893 35.8827 79.0453 36.48 79.216C37.0773 79.3867 38.0587 79.6853 39.424 80.112C40.7893 80.4533 41.7707 80.7093 42.368 80.88C45.184 81.648 47.2747 82.288 48.64 82.8C50.0907 83.2267 52.1813 83.9947 54.912 85.104C57.6427 86.128 59.7333 87.2373 61.184 88.432C62.6347 89.5413 64.2133 90.992 65.92 92.784C67.712 94.4907 68.992 96.5813 69.76 99.056C70.528 101.445 70.912 104.091 70.912 106.992C70.912 115.355 67.6693 122.181 61.184 127.472C54.6987 132.677 46.592 135.28 36.864 135.28ZM105.5 135.152C97.1373 135.152 90.1827 132.037 84.636 125.808C79.0893 119.493 76.316 111.643 76.316 102.256C76.316 92.8693 79.0893 85.0613 84.636 78.832C90.1827 72.6027 97.1373 69.488 105.5 69.488C113.777 69.488 120.263 72.304 124.956 77.936V70.64H145.436V134H124.956V126.704C120.177 132.336 113.692 135.152 105.5 135.152ZM100.636 113.136C103.367 115.952 106.737 117.36 110.748 117.36C114.759 117.36 118.129 115.952 120.86 113.136C123.591 110.235 124.956 106.608 124.956 102.256C124.956 97.904 123.591 94.32 120.86 91.504C118.129 88.6027 114.759 87.152 110.748 87.152C106.737 87.152 103.367 88.6027 100.636 91.504C97.9907 94.32 96.668 97.904 96.668 102.256C96.668 106.608 97.9907 110.235 100.636 113.136ZM157.763 134V70.64H178.243V77.808C183.022 72.2613 189.123 69.488 196.547 69.488C204.739 69.488 211.31 72.304 216.259 77.936C221.208 83.4827 223.683 91.1627 223.683 100.976V134H203.203V102.896C203.203 97.776 202.094 93.8507 199.875 91.12C197.742 88.304 194.755 86.896 190.915 86.896C186.99 86.896 183.875 88.3467 181.571 91.248C179.352 94.1493 178.243 98.0747 178.243 103.024V134H157.763ZM260.75 135.152C252.387 135.152 245.433 132.037 239.886 125.808C234.339 119.493 231.566 111.643 231.566 102.256C231.566 92.8693 234.339 85.0613 239.886 78.832C245.433 72.6027 252.387 69.488 260.75 69.488C269.198 69.488 275.683 72.3893 280.206 78.192V38H300.686V134H280.206V126.448C275.769 132.251 269.283 135.152 260.75 135.152ZM255.886 113.136C258.617 115.952 261.987 117.36 265.998 117.36C270.009 117.36 273.379 115.952 276.11 113.136C278.841 110.235 280.206 106.608 280.206 102.256C280.206 97.904 278.841 94.32 276.11 91.504C273.379 88.6027 270.009 87.152 265.998 87.152C261.987 87.152 258.617 88.6027 255.886 91.504C253.241 94.32 251.918 97.904 251.918 102.256C251.918 106.608 253.241 110.235 255.886 113.136ZM351.696 135.152C343.931 135.152 337.488 132.251 332.368 126.448V134H311.888V38H332.368V78.192C337.317 72.3893 343.76 69.488 351.696 69.488C360.144 69.488 367.099 72.6027 372.56 78.832C378.107 85.0613 380.88 92.8693 380.88 102.256C380.88 111.643 378.107 119.493 372.56 125.808C367.099 132.037 360.144 135.152 351.696 135.152ZM336.464 113.136C339.195 115.952 342.565 117.36 346.576 117.36C350.587 117.36 353.915 115.952 356.56 113.136C359.205 110.235 360.528 106.608 360.528 102.256C360.528 97.904 359.205 94.32 356.56 91.504C353.915 88.6027 350.587 87.152 346.576 87.152C342.565 87.152 339.195 88.6027 336.464 91.504C333.733 94.32 332.368 97.904 332.368 102.256C332.368 106.608 333.733 110.235 336.464 113.136ZM491.399 134L514.567 101.744L491.399 70.64H515.847L527.239 88.304L538.375 70.64H562.823L539.911 101.744L562.823 134H538.503L527.239 115.056L515.719 134H491.399Z" fill="black"/>
<path d="M438.208 103.274L471.994 86.2819C474.76 84.8989 474.859 81.046 472.191 79.5642L441.27 61.8807C439.294 60.794 436.923 60.6952 434.947 61.6831L402.742 77.9835C401.359 78.6751 400.173 79.7618 399.284 81.046L438.208 103.274Z" fill="#00A4EF"/>
<path d="M473.66 80.8115C474.47 82.1998 474.92 83.7863 474.92 85.3729V119.88C474.92 122.26 473.75 124.541 471.86 125.731L443.503 143.48C441.162 144.968 438.282 143.084 438.282 140.109V103.122L473.66 80.8115Z" fill="#F25022"/>
<path d="M399.383 81.0459C398.494 82.429 398 84.0096 398 85.5902V119.969C398 122.34 399.284 124.612 401.359 125.798L432.478 143.481C435.046 144.963 438.208 143.086 438.208 140.122V103.274L399.383 81.0459Z" fill="#FFB900"/>
</svg>
